<mxfile host="app.diagrams.net" agent="Mozilla/5.0 (X11; Linux x86_64; rv:142.0) Gecko/20100101 Firefox/142.0" version="28.2.8">
  <diagram id="EVgqCpWDKN9iP9Nct6Ba" name="PÃ¡gina-1">
    <mxGraphModel dx="1188" dy="628" grid="1" gridSize="10" guides="1" tooltips="1" connect="1" arrows="1" fold="1" page="1" pageScale="1" pageWidth="827" pageHeight="1169" math="0" shadow="0">
      <root>
        <mxCell id="0" />
        <mxCell id="1" parent="0" />
        <mxCell id="2" value="Cliente" style="swimlane;fontStyle=1;align=center;verticalAlign=top;childLayout=stackLayout;horizontal=1;startSize=33.45454545454545;horizontalStack=0;resizeParent=1;resizeParentMax=0;resizeLast=0;collapsible=0;marginBottom=0;" parent="1" vertex="1">
          <mxGeometry x="269" y="8" width="170" height="192" as="geometry" />
        </mxCell>
        <mxCell id="3" value="+int id_cliente" style="text;strokeColor=none;fillColor=none;align=left;verticalAlign=top;spacingLeft=4;spacingRight=4;overflow=hidden;rotatable=0;points=[[0,0.5],[1,0.5]];portConstraint=eastwest;" parent="2" vertex="1">
          <mxGeometry y="33" width="170" height="33" as="geometry" />
        </mxCell>
        <mxCell id="4" value="+String nombre" style="text;strokeColor=none;fillColor=none;align=left;verticalAlign=top;spacingLeft=4;spacingRight=4;overflow=hidden;rotatable=0;points=[[0,0.5],[1,0.5]];portConstraint=eastwest;" parent="2" vertex="1">
          <mxGeometry y="67" width="170" height="33" as="geometry" />
        </mxCell>
        <mxCell id="5" value="+String direccion" style="text;strokeColor=none;fillColor=none;align=left;verticalAlign=top;spacingLeft=4;spacingRight=4;overflow=hidden;rotatable=0;points=[[0,0.5],[1,0.5]];portConstraint=eastwest;" parent="2" vertex="1">
          <mxGeometry y="100" width="170" height="33" as="geometry" />
        </mxCell>
        <mxCell id="6" value="+String telefono" style="text;strokeColor=none;fillColor=none;align=left;verticalAlign=top;spacingLeft=4;spacingRight=4;overflow=hidden;rotatable=0;points=[[0,0.5],[1,0.5]];portConstraint=eastwest;" parent="2" vertex="1">
          <mxGeometry y="134" width="170" height="33" as="geometry" />
        </mxCell>
        <mxCell id="7" style="line;strokeWidth=1;fillColor=none;align=left;verticalAlign=middle;spacingTop=-1;spacingLeft=3;spacingRight=3;rotatable=0;labelPosition=right;points=[];portConstraint=eastwest;strokeColor=inherit;" parent="2" vertex="1">
          <mxGeometry y="167" width="170" height="17" as="geometry" />
        </mxCell>
        <mxCell id="8" value="Vehiculo" style="swimlane;fontStyle=1;align=center;verticalAlign=top;childLayout=stackLayout;horizontal=1;startSize=33.45454545454545;horizontalStack=0;resizeParent=1;resizeParentMax=0;resizeLast=0;collapsible=0;marginBottom=0;" parent="1" vertex="1">
          <mxGeometry x="8" y="273" width="204" height="192" as="geometry" />
        </mxCell>
        <mxCell id="9" value="+String matricula" style="text;strokeColor=none;fillColor=none;align=left;verticalAlign=top;spacingLeft=4;spacingRight=4;overflow=hidden;rotatable=0;points=[[0,0.5],[1,0.5]];portConstraint=eastwest;" parent="8" vertex="1">
          <mxGeometry y="33" width="204" height="33" as="geometry" />
        </mxCell>
        <mxCell id="10" value="+String marca" style="text;strokeColor=none;fillColor=none;align=left;verticalAlign=top;spacingLeft=4;spacingRight=4;overflow=hidden;rotatable=0;points=[[0,0.5],[1,0.5]];portConstraint=eastwest;" parent="8" vertex="1">
          <mxGeometry y="67" width="204" height="33" as="geometry" />
        </mxCell>
        <mxCell id="11" value="+String modelo" style="text;strokeColor=none;fillColor=none;align=left;verticalAlign=top;spacingLeft=4;spacingRight=4;overflow=hidden;rotatable=0;points=[[0,0.5],[1,0.5]];portConstraint=eastwest;" parent="8" vertex="1">
          <mxGeometry y="100" width="204" height="33" as="geometry" />
        </mxCell>
        <mxCell id="12" value="+int anio_fabricacion" style="text;strokeColor=none;fillColor=none;align=left;verticalAlign=top;spacingLeft=4;spacingRight=4;overflow=hidden;rotatable=0;points=[[0,0.5],[1,0.5]];portConstraint=eastwest;" parent="8" vertex="1">
          <mxGeometry y="134" width="204" height="33" as="geometry" />
        </mxCell>
        <mxCell id="13" style="line;strokeWidth=1;fillColor=none;align=left;verticalAlign=middle;spacingTop=-1;spacingLeft=3;spacingRight=3;rotatable=0;labelPosition=right;points=[];portConstraint=eastwest;strokeColor=inherit;" parent="8" vertex="1">
          <mxGeometry y="167" width="204" height="17" as="geometry" />
        </mxCell>
        <mxCell id="14" value="Reparacion" style="swimlane;fontStyle=1;align=center;verticalAlign=top;childLayout=stackLayout;horizontal=1;startSize=33.45454545454545;horizontalStack=0;resizeParent=1;resizeParentMax=0;resizeLast=0;collapsible=0;marginBottom=0;" parent="1" vertex="1">
          <mxGeometry x="250" y="450" width="255" height="182.45454545454544" as="geometry" />
        </mxCell>
        <mxCell id="15" value="+String codigo_reparacion" style="text;strokeColor=none;fillColor=none;align=left;verticalAlign=top;spacingLeft=4;spacingRight=4;overflow=hidden;rotatable=0;points=[[0,0.5],[1,0.5]];portConstraint=eastwest;" parent="14" vertex="1">
          <mxGeometry y="33.45454545454545" width="255" height="33" as="geometry" />
        </mxCell>
        <mxCell id="16" value="+Date fecha_inicio" style="text;strokeColor=none;fillColor=none;align=left;verticalAlign=top;spacingLeft=4;spacingRight=4;overflow=hidden;rotatable=0;points=[[0,0.5],[1,0.5]];portConstraint=eastwest;" parent="14" vertex="1">
          <mxGeometry y="66.45454545454545" width="255" height="33" as="geometry" />
        </mxCell>
        <mxCell id="17" value="+Date fecha_estimada_fin" style="text;strokeColor=none;fillColor=none;align=left;verticalAlign=top;spacingLeft=4;spacingRight=4;overflow=hidden;rotatable=0;points=[[0,0.5],[1,0.5]];portConstraint=eastwest;" parent="14" vertex="1">
          <mxGeometry y="99.45454545454545" width="255" height="33" as="geometry" />
        </mxCell>
        <mxCell id="18" value="+String estado" style="text;strokeColor=none;fillColor=none;align=left;verticalAlign=top;spacingLeft=4;spacingRight=4;overflow=hidden;rotatable=0;points=[[0,0.5],[1,0.5]];portConstraint=eastwest;" parent="14" vertex="1">
          <mxGeometry y="132.45454545454544" width="255" height="33" as="geometry" />
        </mxCell>
        <mxCell id="19" style="line;strokeWidth=1;fillColor=none;align=left;verticalAlign=middle;spacingTop=-1;spacingLeft=3;spacingRight=3;rotatable=0;labelPosition=right;points=[];portConstraint=eastwest;strokeColor=inherit;" parent="14" vertex="1">
          <mxGeometry y="165.45454545454544" width="255" height="17" as="geometry" />
        </mxCell>
        <mxCell id="20" value="Factura" style="swimlane;fontStyle=1;align=center;verticalAlign=top;childLayout=stackLayout;horizontal=1;startSize=33.45454545454545;horizontalStack=0;resizeParent=1;resizeParentMax=0;resizeLast=0;collapsible=0;marginBottom=0;" parent="1" vertex="1">
          <mxGeometry x="557" y="273" width="221" height="192" as="geometry" />
        </mxCell>
        <mxCell id="21" value="+String numero_factura" style="text;strokeColor=none;fillColor=none;align=left;verticalAlign=top;spacingLeft=4;spacingRight=4;overflow=hidden;rotatable=0;points=[[0,0.5],[1,0.5]];portConstraint=eastwest;" parent="20" vertex="1">
          <mxGeometry y="33" width="221" height="33" as="geometry" />
        </mxCell>
        <mxCell id="22" value="+Date fecha_emision" style="text;strokeColor=none;fillColor=none;align=left;verticalAlign=top;spacingLeft=4;spacingRight=4;overflow=hidden;rotatable=0;points=[[0,0.5],[1,0.5]];portConstraint=eastwest;" parent="20" vertex="1">
          <mxGeometry y="67" width="221" height="33" as="geometry" />
        </mxCell>
        <mxCell id="23" value="+float monto_total" style="text;strokeColor=none;fillColor=none;align=left;verticalAlign=top;spacingLeft=4;spacingRight=4;overflow=hidden;rotatable=0;points=[[0,0.5],[1,0.5]];portConstraint=eastwest;" parent="20" vertex="1">
          <mxGeometry y="100" width="221" height="33" as="geometry" />
        </mxCell>
        <mxCell id="24" value="+String metodo_pago" style="text;strokeColor=none;fillColor=none;align=left;verticalAlign=top;spacingLeft=4;spacingRight=4;overflow=hidden;rotatable=0;points=[[0,0.5],[1,0.5]];portConstraint=eastwest;" parent="20" vertex="1">
          <mxGeometry y="134" width="221" height="33" as="geometry" />
        </mxCell>
        <mxCell id="25" style="line;strokeWidth=1;fillColor=none;align=left;verticalAlign=middle;spacingTop=-1;spacingLeft=3;spacingRight=3;rotatable=0;labelPosition=right;points=[];portConstraint=eastwest;strokeColor=inherit;" parent="20" vertex="1">
          <mxGeometry y="167" width="221" height="17" as="geometry" />
        </mxCell>
        <mxCell id="CXpZqYeXkPHlKMWzV48j-51" style="edgeStyle=orthogonalEdgeStyle;rounded=0;orthogonalLoop=1;jettySize=auto;html=1;" edge="1" parent="1" source="26">
          <mxGeometry relative="1" as="geometry">
            <mxPoint x="391.5" y="630" as="targetPoint" />
          </mxGeometry>
        </mxCell>
        <mxCell id="26" value="Empleado" style="swimlane;fontStyle=1;align=center;verticalAlign=top;childLayout=stackLayout;horizontal=1;startSize=33.45454545454545;horizontalStack=0;resizeParent=1;resizeParentMax=0;resizeLast=0;collapsible=0;marginBottom=0;" parent="1" vertex="1">
          <mxGeometry x="269" y="780" width="245" height="182.45454545454544" as="geometry" />
        </mxCell>
        <mxCell id="27" value="+int id_empleado" style="text;strokeColor=none;fillColor=none;align=left;verticalAlign=top;spacingLeft=4;spacingRight=4;overflow=hidden;rotatable=0;points=[[0,0.5],[1,0.5]];portConstraint=eastwest;" parent="26" vertex="1">
          <mxGeometry y="33.45454545454545" width="245" height="33" as="geometry" />
        </mxCell>
        <mxCell id="28" value="+String nombre" style="text;strokeColor=none;fillColor=none;align=left;verticalAlign=top;spacingLeft=4;spacingRight=4;overflow=hidden;rotatable=0;points=[[0,0.5],[1,0.5]];portConstraint=eastwest;" parent="26" vertex="1">
          <mxGeometry y="66.45454545454545" width="245" height="33" as="geometry" />
        </mxCell>
        <mxCell id="29" value="+String especialidad" style="text;strokeColor=none;fillColor=none;align=left;verticalAlign=top;spacingLeft=4;spacingRight=4;overflow=hidden;rotatable=0;points=[[0,0.5],[1,0.5]];portConstraint=eastwest;" parent="26" vertex="1">
          <mxGeometry y="99.45454545454545" width="245" height="33" as="geometry" />
        </mxCell>
        <mxCell id="30" value="+Date fecha_contratacion" style="text;strokeColor=none;fillColor=none;align=left;verticalAlign=top;spacingLeft=4;spacingRight=4;overflow=hidden;rotatable=0;points=[[0,0.5],[1,0.5]];portConstraint=eastwest;" parent="26" vertex="1">
          <mxGeometry y="132.45454545454544" width="245" height="33" as="geometry" />
        </mxCell>
        <mxCell id="31" style="line;strokeWidth=1;fillColor=none;align=left;verticalAlign=middle;spacingTop=-1;spacingLeft=3;spacingRight=3;rotatable=0;labelPosition=right;points=[];portConstraint=eastwest;strokeColor=inherit;" parent="26" vertex="1">
          <mxGeometry y="165.45454545454544" width="245" height="17" as="geometry" />
        </mxCell>
        <mxCell id="32" value="posee" style="curved=1;startArrow=none;endArrow=none;exitX=0;exitY=0.71;entryX=0.38;entryY=0;" parent="1" source="2" target="8" edge="1">
          <mxGeometry relative="1" as="geometry">
            <Array as="points">
              <mxPoint x="76" y="237" />
            </Array>
          </mxGeometry>
        </mxCell>
        <mxCell id="33" value="1" style="edgeLabel;resizable=0;labelBackgroundColor=none;fontSize=12;align=right;verticalAlign=top;" parent="32" vertex="1">
          <mxGeometry x="-1" relative="1" as="geometry">
            <mxPoint x="-9" y="-24" as="offset" />
          </mxGeometry>
        </mxCell>
        <mxCell id="34" value="N" style="edgeLabel;resizable=0;labelBackgroundColor=none;fontSize=12;align=left;verticalAlign=bottom;" parent="32" vertex="1">
          <mxGeometry x="1" relative="1" as="geometry">
            <mxPoint x="-15" y="-3" as="offset" />
          </mxGeometry>
        </mxCell>
        <mxCell id="35" value="tiene" style="curved=1;startArrow=none;endArrow=none;exitX=0.5;exitY=1;entryX=0;entryY=0.18;" parent="1" source="8" target="14" edge="1">
          <mxGeometry relative="1" as="geometry">
            <Array as="points">
              <mxPoint x="110" y="502" />
            </Array>
          </mxGeometry>
        </mxCell>
        <mxCell id="36" value="1" style="edgeLabel;resizable=0;labelBackgroundColor=none;fontSize=12;align=left;verticalAlign=top;" parent="35" vertex="1">
          <mxGeometry x="-1" relative="1" as="geometry">
            <mxPoint x="-20" as="offset" />
          </mxGeometry>
        </mxCell>
        <mxCell id="37" value="N" style="edgeLabel;resizable=0;labelBackgroundColor=none;fontSize=12;align=right;verticalAlign=bottom;" parent="35" vertex="1">
          <mxGeometry x="1" relative="1" as="geometry">
            <mxPoint x="-10" y="27" as="offset" />
          </mxGeometry>
        </mxCell>
        <mxCell id="38" value="recibe" style="curved=1;startArrow=none;endArrow=none;exitX=1;exitY=0.69;entryX=0.5;entryY=0;" parent="1" source="2" target="20" edge="1">
          <mxGeometry relative="1" as="geometry">
            <Array as="points">
              <mxPoint x="667" y="237" />
            </Array>
          </mxGeometry>
        </mxCell>
        <mxCell id="39" value="1" style="edgeLabel;resizable=0;labelBackgroundColor=none;fontSize=12;align=left;verticalAlign=top;" parent="38" vertex="1">
          <mxGeometry x="-1" relative="1" as="geometry">
            <mxPoint x="11" y="-20" as="offset" />
          </mxGeometry>
        </mxCell>
        <mxCell id="40" value="N" style="edgeLabel;resizable=0;labelBackgroundColor=none;fontSize=12;align=right;verticalAlign=bottom;" parent="38" vertex="1">
          <mxGeometry x="1" relative="1" as="geometry">
            <mxPoint x="12" y="-3" as="offset" />
          </mxGeometry>
        </mxCell>
        <mxCell id="44" value="alquila" style="curved=1;startArrow=none;endArrow=none;exitX=0.5;exitY=1;entryX=1;entryY=0.21;" parent="1" source="2" target="8" edge="1">
          <mxGeometry relative="1" as="geometry">
            <Array as="points">
              <mxPoint x="354" y="237" />
            </Array>
          </mxGeometry>
        </mxCell>
        <mxCell id="45" value="M" style="edgeLabel;resizable=0;labelBackgroundColor=none;fontSize=12;align=right;verticalAlign=top;" parent="44" vertex="1">
          <mxGeometry x="-1" relative="1" as="geometry">
            <mxPoint x="-14" as="offset" />
          </mxGeometry>
        </mxCell>
        <mxCell id="46" value="N" style="edgeLabel;resizable=0;labelBackgroundColor=none;fontSize=12;align=left;verticalAlign=bottom;" parent="44" vertex="1">
          <mxGeometry x="1" relative="1" as="geometry">
            <mxPoint y="-13" as="offset" />
          </mxGeometry>
        </mxCell>
        <mxCell id="47" value="cubre" style="curved=1;startArrow=none;endArrow=none;exitX=0.5;exitY=1;entryX=1;entryY=0.19;" parent="1" source="20" target="14" edge="1">
          <mxGeometry relative="1" as="geometry">
            <Array as="points">
              <mxPoint x="667" y="502" />
            </Array>
          </mxGeometry>
        </mxCell>
        <mxCell id="48" value="N" style="edgeLabel;resizable=0;labelBackgroundColor=none;fontSize=12;align=right;verticalAlign=top;" parent="47" vertex="1">
          <mxGeometry x="-1" relative="1" as="geometry">
            <mxPoint x="-137" y="25" as="offset" />
          </mxGeometry>
        </mxCell>
        <mxCell id="49" value="1" style="edgeLabel;resizable=0;labelBackgroundColor=none;fontSize=12;align=left;verticalAlign=bottom;" parent="47" vertex="1">
          <mxGeometry x="1" relative="1" as="geometry">
            <mxPoint x="165" y="5" as="offset" />
          </mxGeometry>
        </mxCell>
        <mxCell id="CXpZqYeXkPHlKMWzV48j-52" value="M" style="edgeLabel;resizable=0;labelBackgroundColor=none;fontSize=12;align=left;verticalAlign=bottom;" vertex="1" parent="1">
          <mxGeometry x="450" y="670" as="geometry">
            <mxPoint x="-48" y="-13" as="offset" />
          </mxGeometry>
        </mxCell>
        <mxCell id="CXpZqYeXkPHlKMWzV48j-56" value="N" style="edgeLabel;resizable=0;labelBackgroundColor=none;fontSize=12;align=right;verticalAlign=top;" vertex="1" parent="1">
          <mxGeometry x="414" y="750" as="geometry" />
        </mxCell>
        <mxCell id="CXpZqYeXkPHlKMWzV48j-58" value="&lt;div align=&quot;left&quot;&gt;CLIENTES: NOMBRE, DIRECCION TELEFONO&lt;/div&gt;&lt;div align=&quot;left&quot;&gt;FACTURA: FECHA EMIISON, IMPORTE, METODO PAGO, ID_CLIENTE&lt;/div&gt;&lt;div align=&quot;left&quot;&gt;VEHICULO: MATRICULA, MARCA, MODELO, AÃO FABRICACION, ID_DUEÃO&lt;/div&gt;&lt;div align=&quot;left&quot;&gt;&lt;span style=&quot;background-color: rgb(255, 204, 204);&quot;&gt;&lt;span style=&quot;background-color: light-dark(#ffffff, var(--ge-dark-color, #121212));&quot;&gt;REPARACION&lt;/span&gt;&lt;/span&gt;: FECHA INICIO, FECHA FIN, ESTADO, ID_MATRICULA,ID_FACTURA&lt;/div&gt;&lt;div align=&quot;left&quot;&gt;EMPLEADOS: NOMBRE, ESPECIALIDAD, FECHA CONTRATACION&lt;/div&gt;&lt;div align=&quot;left&quot;&gt;ALQUILA:&amp;nbsp; ID, ID_CLIENTE,ID_VEHICULO&lt;/div&gt;&lt;div align=&quot;left&quot;&gt;EMPLEADO-REPARACION: ID_EMPLEADO, &lt;span style=&quot;background-color: rgb(255, 204, 204);&quot;&gt;&lt;span style=&quot;background-color: light-dark(#ffffff, var(--ge-dark-color, #121212));&quot;&gt;&lt;span style=&quot;background-color: rgb(255, 204, 204);&quot;&gt;ID_REPARACION&lt;/span&gt;&lt;/span&gt;&lt;/span&gt;&lt;/div&gt;" style="text;html=1;whiteSpace=wrap;strokeColor=none;fillColor=none;align=left;verticalAlign=middle;rounded=0;" vertex="1" parent="1">
          <mxGeometry x="8" y="980" width="630" height="110" as="geometry" />
        </mxCell>
      </root>
    </mxGraphModel>
  </diagram>
</mxfile>
